<?xml version="1.0" encoding="UTF-8" standalone="no"?>
<!-- Created with Inkscape (http://www.inkscape.org/) -->

<svg
   xmlns:dc="http://purl.org/dc/elements/1.1/"
   xmlns:cc="http://creativecommons.org/ns#"
   xmlns:rdf="http://www.w3.org/1999/02/22-rdf-syntax-ns#"
   xmlns:svg="http://www.w3.org/2000/svg"
   xmlns="http://www.w3.org/2000/svg"
   xmlns:sodipodi="http://sodipodi.sourceforge.net/DTD/sodipodi-0.dtd"
   xmlns:inkscape="http://www.inkscape.org/namespaces/inkscape"
   width="180"
   height="120"
   viewBox="0 0 180 120"
   id="svg2"
   version="1.1"
   inkscape:version="0.91 r"
   sodipodi:docname="gstrom-1.svg">
  <defs
     id="defs4" />
  <sodipodi:namedview
     id="base"
     pagecolor="#ffffff"
     bordercolor="#666666"
     borderopacity="1.0"
     inkscape:pageopacity="0.0"
     inkscape:pageshadow="2"
     inkscape:zoom="5.6"
     inkscape:cx="25.555691"
     inkscape:cy="53.836704"
     inkscape:document-units="px"
     inkscape:current-layer="layer1"
     showgrid="false"
     units="px"
     inkscape:showpageshadow="false"
     inkscape:window-width="1926"
     inkscape:window-height="1197"
     inkscape:window-x="475"
     inkscape:window-y="175"
     inkscape:window-maximized="0"
     showguides="false" />
  <metadata
     id="metadata7">
    <rdf:RDF>
      <cc:Work
         rdf:about="">
        <dc:format>image/svg+xml</dc:format>
        <dc:type
           rdf:resource="http://purl.org/dc/dcmitype/StillImage" />
        <dc:title />
      </cc:Work>
    </rdf:RDF>
  </metadata>
  <g
     inkscape:label="Ebene 1"
     inkscape:groupmode="layer"
     id="layer1"
     transform="translate(0,-932.36216)">
    <rect
       rx="2.8571429"
       style="color:#000000;display:inline;overflow:visible;visibility:visible;opacity:1;fill:#aaeeff;fill-opacity:0.21568627;fill-rule:nonzero;stroke:none;stroke-width:1;stroke-linecap:butt;stroke-linejoin:miter;stroke-miterlimit:4;stroke-dasharray:none;stroke-dashoffset:0;stroke-opacity:1;marker:none;enable-background:accumulate"
       id="rect4155"
       width="147.67857"
       height="89.821426"
       x="16.160852"
       y="947.45148"
       ry="2.8571429" />
    <path
       style="color:#000000;display:inline;overflow:visible;visibility:visible;opacity:1;fill:#0088aa;fill-opacity:0.21568627;fill-rule:nonzero;stroke:none;stroke-width:1;stroke-linecap:butt;stroke-linejoin:miter;stroke-miterlimit:4;stroke-dasharray:none;stroke-dashoffset:0;stroke-opacity:1;marker:none;enable-background:accumulate"
       d="m 19.017996,947.45142 c -1.582857,0 -2.857422,1.27457 -2.857422,2.85742 l 0,84.10746 c 0,1.5829 1.274565,2.8574 2.857422,2.8574 l 106.244144,0 a 135.59915,75.366898 0 0 0 26.90625,-44.91017 135.59915,75.366898 0 0 0 -26.88672,-44.91211 l -106.263674,0 z"
       id="ellipse4223"
       inkscape:connector-curvature="0" />
    <path
       inkscape:connector-curvature="0"
       style="color:#000000;display:inline;overflow:visible;visibility:visible;opacity:1;fill:#0088aa;fill-opacity:0.21568627;fill-rule:nonzero;stroke:none;stroke-width:1;stroke-linecap:butt;stroke-linejoin:miter;stroke-miterlimit:4;stroke-dasharray:none;stroke-dashoffset:0;stroke-opacity:1;marker:none;enable-background:accumulate"
       d="m 19.017996,947.45142 c -1.582857,0 -2.857422,1.27457 -2.857422,2.85742 l 0,84.10746 c 0,1.5828 1.274565,2.8574 2.857422,2.8574 l 43.095703,0 A 92.868454,51.616898 0 0 0 109.43792,992.36353 92.868454,51.616898 0 0 0 62.22698,947.45142 l -43.208984,0 z"
       id="ellipse4199" />
    <path
       inkscape:connector-curvature="0"
       style="color:#000000;display:inline;overflow:visible;visibility:visible;opacity:1;fill:#0088aa;fill-opacity:0.21568627;fill-rule:nonzero;stroke:none;stroke-width:1;stroke-linecap:butt;stroke-linejoin:miter;stroke-miterlimit:4;stroke-dasharray:none;stroke-dashoffset:0;stroke-opacity:1;marker:none;enable-background:accumulate"
       d="m 16.568777,972.49634 a 35.986683,19.866331 0 0 0 -0.408203,0.008 l 0,39.71286 a 35.986683,19.866331 0 0 0 0.408203,0.012 35.986683,19.866331 0 0 0 35.986328,-19.86527 35.986683,19.866331 0 0 0 -35.986328,-19.86719 z"
       id="ellipse4191" />
    <path
       inkscape:connector-curvature="0"
       style="color:#000000;display:inline;overflow:visible;visibility:visible;opacity:1;fill:#0088aa;fill-opacity:0.21568627;fill-rule:nonzero;stroke:none;stroke-width:1;stroke-linecap:butt;stroke-linejoin:miter;stroke-miterlimit:4;stroke-dasharray:none;stroke-dashoffset:0;stroke-opacity:1;marker:none;enable-background:accumulate"
       d="m 16.568777,958.60572 a 60.870174,33.755928 0 0 0 -0.408203,0.008 l 0,67.49418 a 60.870174,33.755928 0 0 0 0.408203,0.012 60.870174,33.755928 0 0 0 60.871094,-33.75782 60.870174,33.755928 0 0 0 -60.871094,-33.75586 z"
       id="ellipse4197" />
    <path
       inkscape:connector-curvature="0"
       style="color:#000000;display:inline;overflow:visible;visibility:visible;opacity:1;fill:#0088aa;fill-opacity:0.21568627;fill-rule:nonzero;stroke:none;stroke-width:1;stroke-linecap:butt;stroke-linejoin:miter;stroke-miterlimit:4;stroke-dasharray:none;stroke-dashoffset:0;stroke-opacity:1;marker:none;enable-background:accumulate"
       d="m 16.568777,984.40845 a 14.647212,7.9549513 0 0 0 -0.408203,0.008 l 0,15.88865 a 14.647212,7.9549513 0 0 0 0.408203,0.012 14.647212,7.9549513 0 0 0 14.648438,-7.95308 14.647212,7.9549513 0 0 0 -14.648438,-7.95508 z"
       id="circle4183" />
    <circle
       r="0"
       cy="991.86768"
       cx="16.569397"
       id="circle4195"
       style="color:#000000;display:inline;overflow:visible;visibility:visible;opacity:1;fill:#808080;fill-opacity:0.21568627;fill-rule:nonzero;stroke:#808080;stroke-width:1;stroke-linecap:butt;stroke-linejoin:miter;stroke-miterlimit:4;stroke-dasharray:none;stroke-dashoffset:0;stroke-opacity:1;marker:none;enable-background:accumulate" />
    <path
       inkscape:connector-curvature="0"
       style="color:#000000;display:inline;overflow:visible;visibility:visible;opacity:1;fill:#808080;fill-opacity:0.21568627;fill-rule:nonzero;stroke:#808080;stroke-width:1;stroke-linecap:butt;stroke-linejoin:miter;stroke-miterlimit:4;stroke-dasharray:none;stroke-dashoffset:0;stroke-opacity:1;marker:none;enable-background:accumulate"
       d="m 16.160574,986.68082 0,11.36345 8.085938,0 c 0.445178,0 2.802734,-2.53596 2.802734,-5.68415 0,-3.14822 -2.357556,-5.6793 -2.802734,-5.6793 z"
       id="rect4167"
       sodipodi:nodetypes="ccsssc" />
    <rect
       rx="2.8571429"
       ry="2.8571429"
       y="947.45148"
       x="16.160852"
       height="89.821426"
       width="147.67857"
       id="rect4221"
       style="color:#000000;display:inline;overflow:visible;visibility:visible;opacity:1;fill:none;fill-opacity:0.21395347;fill-rule:nonzero;stroke:#656565;stroke-width:1;stroke-linecap:butt;stroke-linejoin:miter;stroke-miterlimit:4;stroke-dasharray:none;stroke-dashoffset:0;stroke-opacity:1;marker:none;enable-background:accumulate" />
  </g>
</svg>
